<svg data-v-423bf9ae="" xmlns="http://www.w3.org/2000/svg" viewBox="0 0 495 90" class="iconLeft"><!----><!----><!----><g data-v-423bf9ae="" id="e89c7c5c-2c80-497a-99ac-be297b784ac9" fill="#000000" transform="matrix(4.23131161556461,0,0,4.23131161556461,166.26388297780161,18.723555274404)"><path d="M2.84 4.76L2.84 5.32L2.84 5.32Q2.84 7.07 3.23 7.90L3.23 7.90L3.23 7.90Q3.61 8.72 4.65 8.72L4.65 8.72L4.77 8.72L4.77 8.72Q6.29 8.72 6.29 6.78L6.29 6.78L8.55 6.78L8.55 6.90L8.55 6.90Q8.55 8.89 7.59 9.79L7.59 9.79L7.59 9.79Q6.62 10.68 4.65 10.68L4.65 10.68L4.65 10.68Q2.51 10.68 1.53 9.41L1.53 9.41L1.53 9.41Q0.55 8.15 0.55 5.32L0.55 5.32L0.55 4.76L0.55 4.76Q0.55 1.93 1.53 0.66L1.53 0.66L1.53 0.66Q2.51-0.60 4.65-0.60L4.65-0.60L4.65-0.60Q6.64-0.60 7.59 0.30L7.59 0.30L7.59 0.30Q8.55 1.20 8.55 3.22L8.55 3.22L8.55 3.72L6.29 3.72L6.29 3.72Q6.29 2.52 5.96 1.94L5.96 1.94L5.96 1.94Q5.63 1.36 4.77 1.36L4.77 1.36L4.65 1.36L4.65 1.36Q3.61 1.36 3.23 2.18L3.23 2.18L3.23 2.18Q2.84 3.01 2.84 4.76L2.84 4.76ZM12.99 10.68L12.99 10.68L12.99 10.68Q11.27 10.68 10.39 9.70L10.39 9.70L10.39 9.70Q9.52 8.72 9.52 7.04L9.52 7.04L9.52 6.54L9.52 6.54Q9.52 4.86 10.39 3.88L10.39 3.88L10.39 3.88Q11.27 2.90 12.99 2.90L12.99 2.90L12.99 2.90Q14.73 2.90 15.60 3.88L15.60 3.88L15.60 3.88Q16.46 4.86 16.46 6.54L16.46 6.54L16.46 7.04L16.46 7.04Q16.46 8.72 15.60 9.70L15.60 9.70L15.60 9.70Q14.73 10.68 12.99 10.68ZM11.73 7.04L11.73 7.04Q11.73 8.78 12.99 8.78L12.99 8.78L12.99 8.78Q14.25 8.78 14.25 7.04L14.25 7.04L14.25 6.54L14.25 6.54Q14.25 4.80 12.99 4.80L12.99 4.80L12.99 4.80Q11.73 4.80 11.73 6.54L11.73 6.54L11.73 7.04ZM20.50 2.11L20.50 2.11L20.50 3.08L22.12 3.08L22.12 5.01L20.50 5.01L20.50 10.50L18.28 10.50L18.28 5.01L17.15 5.01L17.15 3.08L18.28 3.08L18.28 1.88L18.28 1.88Q18.28-0.88 21.07-0.88L21.07-0.88L21.07-0.88Q21.94-0.88 22.26-0.70L22.26-0.70L22.26 1.12L22.26 1.12Q22.06 1.02 21.59 1.02L21.59 1.02L21.59 1.02Q21.03 1.02 20.76 1.25L20.76 1.25L20.76 1.25Q20.50 1.47 20.50 2.11ZM26.25 2.11L26.25 2.11L26.25 3.08L27.87 3.08L27.87 5.01L26.25 5.01L26.25 10.50L24.04 10.50L24.04 5.01L22.90 5.01L22.90 3.08L24.04 3.08L24.04 1.88L24.04 1.88Q24.04-0.88 26.82-0.88L26.82-0.88L26.82-0.88Q27.69-0.88 28.01-0.70L28.01-0.70L28.01 1.12L28.01 1.12Q27.82 1.02 27.34 1.02L27.34 1.02L27.34 1.02Q26.78 1.02 26.52 1.25L26.52 1.25L26.52 1.25Q26.25 1.47 26.25 2.11ZM35.76 6.59L35.76 7.59L31.02 7.59L31.02 7.59Q31.08 8.34 31.43 8.67L31.43 8.67L31.43 8.67Q31.78 9.00 32.42 9.00L32.42 9.00L32.42 9.00Q32.98 9.00 33.33 8.74L33.33 8.74L33.33 8.74Q33.67 8.47 33.67 8.12L33.67 8.12L35.76 8.12L35.76 8.18L35.76 8.18Q35.76 9.27 34.87 9.97L34.87 9.97L34.87 9.97Q33.98 10.68 32.41 10.68L32.41 10.68L32.41 10.68Q30.63 10.68 29.72 9.67L29.72 9.67L29.72 9.67Q28.81 8.67 28.81 6.99L28.81 6.99L28.81 6.59L28.81 6.59Q28.81 4.93 29.72 3.91L29.72 3.91L29.72 3.91Q30.63 2.90 32.33 2.90L32.33 2.90L32.33 2.90Q34.02 2.90 34.89 3.91L34.89 3.91L34.89 3.91Q35.76 4.91 35.76 6.59L35.76 6.59ZM33.53 5.99L33.53 5.99Q33.43 4.58 32.28 4.58L32.28 4.58L32.28 4.58Q31.14 4.58 31.04 5.99L31.04 5.99L33.53 5.99ZM43.54 6.59L43.54 7.59L38.81 7.59L38.81 7.59Q38.86 8.34 39.21 8.67L39.21 8.67L39.21 8.67Q39.56 9.00 40.21 9.00L40.21 9.00L40.21 9.00Q40.77 9.00 41.11 8.74L41.11 8.74L41.11 8.74Q41.45 8.47 41.45 8.12L41.45 8.12L43.54 8.12L43.54 8.18L43.54 8.18Q43.54 9.27 42.65 9.97L42.65 9.97L42.65 9.97Q41.76 10.68 40.19 10.68L40.19 10.68L40.19 10.68Q38.42 10.68 37.51 9.67L37.51 9.67L37.51 9.67Q36.60 8.67 36.60 6.99L36.60 6.99L36.60 6.59L36.60 6.59Q36.60 4.93 37.51 3.91L37.51 3.91L37.51 3.91Q38.42 2.90 40.11 2.90L40.11 2.90L40.11 2.90Q41.80 2.90 42.67 3.91L42.67 3.91L42.67 3.91Q43.54 4.91 43.54 6.59L43.54 6.59ZM41.31 5.99L41.31 5.99Q41.22 4.58 40.07 4.58L40.07 4.58L40.07 4.58Q38.92 4.58 38.82 5.99L38.82 5.99L41.31 5.99ZM50.46 9.00L50.46 9.00L50.46 9.00Q51.45 9.00 51.45 8.27L51.45 8.27L51.45 8.27Q51.45 7.92 51.21 7.76L51.21 7.76L51.21 7.76Q50.97 7.59 50.34 7.53L50.34 7.53L50.34 7.53Q48.73 7.41 48.03 6.94L48.03 6.94L48.03 6.94Q47.33 6.47 47.33 5.45L47.33 5.45L47.33 5.32L47.33 5.32Q47.33 4.10 48.19 3.50L48.19 3.50L48.19 3.50Q49.04 2.90 50.46 2.90L50.46 2.90L50.46 2.90Q53.58 2.90 53.58 5.45L53.58 5.45L53.58 5.52L51.41 5.52L51.41 5.52Q51.41 4.58 50.46 4.58L50.46 4.58L50.46 4.58Q50.01 4.58 49.76 4.76L49.76 4.76L49.76 4.76Q49.52 4.94 49.52 5.25L49.52 5.25L49.52 5.25Q49.52 5.60 49.74 5.75L49.74 5.75L49.74 5.75Q49.97 5.91 50.58 5.96L50.58 5.96L50.58 5.96Q52.15 6.09 52.91 6.53L52.91 6.53L52.91 6.53Q53.68 6.97 53.68 8.06L53.68 8.06L53.68 8.19L53.68 8.19Q53.68 9.37 52.86 10.02L52.86 10.02L52.86 10.02Q52.04 10.68 50.46 10.68L50.46 10.68L50.46 10.68Q48.87 10.68 48.06 10.01L48.06 10.01L48.06 10.01Q47.25 9.34 47.25 8.22L47.25 8.22L47.25 8.15L49.45 8.15L49.45 8.15Q49.45 9.00 50.46 9.00ZM54.91-0.70L57.12-0.70L57.12 3.79L57.12 3.79Q57.92 2.90 59.30 2.90L59.30 2.90L59.30 2.90Q60.48 2.90 61.04 3.63L61.04 3.63L61.04 3.63Q61.60 4.35 61.60 5.47L61.60 5.47L61.60 10.50L59.40 10.50L59.40 5.84L59.40 5.84Q59.40 4.80 58.42 4.80L58.42 4.80L58.42 4.80Q57.57 4.80 57.12 5.50L57.12 5.50L57.12 10.50L54.91 10.50L54.91-0.70ZM66.16 10.68L66.16 10.68L66.16 10.68Q64.44 10.68 63.57 9.70L63.57 9.70L63.57 9.70Q62.69 8.72 62.69 7.04L62.69 7.04L62.69 6.54L62.69 6.54Q62.69 4.86 63.57 3.88L63.57 3.88L63.57 3.88Q64.44 2.90 66.16 2.90L66.16 2.90L66.16 2.90Q67.90 2.90 68.77 3.88L68.77 3.88L68.77 3.88Q69.64 4.86 69.64 6.54L69.64 6.54L69.64 7.04L69.64 7.04Q69.64 8.72 68.77 9.70L68.77 9.70L68.77 9.70Q67.90 10.68 66.16 10.68ZM64.90 7.04L64.90 7.04Q64.90 8.78 66.16 8.78L66.16 8.78L66.16 8.78Q67.42 8.78 67.42 7.04L67.42 7.04L67.42 6.54L67.42 6.54Q67.42 4.80 66.16 4.80L66.16 4.80L66.16 4.80Q64.90 4.80 64.90 6.54L64.90 6.54L64.90 7.04ZM74.91 10.68L74.91 10.68L74.91 10.68Q73.71 10.68 73.01 9.87L73.01 9.87L73.01 13.30L70.80 13.30L70.80 5.18L70.67 3.08L72.65 3.08L72.80 3.99L72.80 3.99Q73.53 2.90 74.91 2.90L74.91 2.90L74.91 2.90Q77.67 2.90 77.67 6.54L77.67 6.54L77.67 7.04L77.67 7.04Q77.67 10.68 74.91 10.68ZM74.27 4.80L74.27 4.80L74.27 4.80Q73.49 4.80 73.01 5.50L73.01 5.50L73.01 8.08L73.01 8.08Q73.49 8.78 74.27 8.78L74.27 8.78L74.27 8.78Q75.46 8.78 75.46 7.04L75.46 7.04L75.46 6.54L75.46 6.54Q75.46 4.80 74.27 4.80Z"></path></g><defs data-v-423bf9ae=""><linearGradient data-v-423bf9ae="" gradientTransform="rotate(25)" id="3430cd81-663c-4428-9af2-c29b89ddba8c" x1="0%" y1="0%" x2="100%" y2="0%"><stop data-v-423bf9ae="" offset="0%" style="stop-color: rgb(145, 60, 0); stop-opacity: 1;"></stop><stop data-v-423bf9ae="" offset="100%" style="stop-color: rgb(217, 173, 118); stop-opacity: 1;"></stop></linearGradient></defs><g data-v-423bf9ae="" id="d16a8063-45b6-49bd-a743-4e6e43a4d0b3" transform="matrix(1.6762582935600538,0,0,1.6762582935600538,-9.135014988182618,-38.65876125173277)" stroke="none" fill="url(#3430cd81-663c-4428-9af2-c29b89ddba8c)"><path d="M5.833 37.065S1.672 70.26 36.4 70.26c0 0 8.655-33.195-30.567-33.195zM94.074 23.155c-47.241 0-51.611 29.712-50.744 44.967 7.981-23.02 29.738-28.101 29.738-28.101-20.77 12.557-25.03 35.225-25.307 36.825 52.753-2.036 46.313-53.691 46.313-53.691z"></path></g><!----></svg>