<svg data-v-423bf9ae="" xmlns="http://www.w3.org/2000/svg" viewBox="0 0 467 90" class="iconLeft"><!----><!----><!----><g data-v-423bf9ae="" id="c632e96d-98da-4c5e-8110-ea1a769826ef" fill="black" transform="matrix(4.731861084854148,0,0,4.731861084854148,121.41936283838771,7.570978651083372)"><path d="M4.06 10.64C2.51 10.64 1.53 9.42 1.53 7.98C1.53 6.54 2.51 5.32 4.06 5.32C5.05 5.32 5.77 5.88 6.09 6.68L7.22 6.68C6.82 5.32 5.57 4.37 3.92 4.37C1.82 4.37 0.48 5.98 0.48 7.98C0.48 9.98 1.82 11.59 3.92 11.59C5.57 11.59 6.82 10.64 7.22 9.28L6.09 9.28C5.77 10.08 5.05 10.64 4.06 10.64ZM11.56 4.37C9.42 4.37 8.09 5.98 8.09 7.98C8.09 9.98 9.42 11.59 11.56 11.59C13.71 11.59 15.04 9.98 15.04 7.98C15.04 5.98 13.71 4.37 11.56 4.37ZM11.56 10.64C10.01 10.64 9.14 9.42 9.14 7.98C9.14 6.54 10.01 5.32 11.56 5.32C13.12 5.32 13.99 6.54 13.99 7.98C13.99 9.42 13.12 10.64 11.56 10.64ZM19.49 2.56L19.49 1.57L19.40 1.57C17.79 1.57 16.81 2.34 16.81 3.86L16.81 4.48L15.61 4.48L15.61 5.40L16.81 5.40L16.81 11.48L17.86 11.48L17.86 5.40L19.49 5.40L19.49 4.48L17.86 4.48L17.86 3.95C17.86 2.98 18.37 2.56 19.35 2.56ZM23.79 2.56L23.79 1.57L23.70 1.57C22.09 1.57 21.11 2.34 21.11 3.86L21.11 4.48L19.91 4.48L19.91 5.40L21.11 5.40L21.11 11.48L22.16 11.48L22.16 5.40L23.79 5.40L23.79 4.48L22.16 4.48L22.16 3.95C22.16 2.98 22.67 2.56 23.65 2.56ZM27.92 10.64C26.50 10.64 25.59 9.65 25.44 8.40L31.30 8.40L31.30 7.98C31.30 5.98 29.97 4.37 27.83 4.37C25.69 4.37 24.36 5.98 24.36 7.98C24.36 9.98 25.76 11.59 27.90 11.59C29.57 11.59 30.60 10.72 31.09 9.46L29.95 9.46C29.57 10.16 28.90 10.64 27.92 10.64ZM27.83 5.32C29.18 5.32 30.02 6.23 30.21 7.42L25.45 7.42C25.65 6.23 26.49 5.32 27.83 5.32ZM35.71 10.64C34.30 10.64 33.39 9.65 33.24 8.40L39.10 8.40L39.10 7.98C39.10 5.98 37.77 4.37 35.63 4.37C33.49 4.37 32.16 5.98 32.16 7.98C32.16 9.98 33.56 11.59 35.70 11.59C37.37 11.59 38.40 10.72 38.89 9.46L37.74 9.46C37.37 10.16 36.69 10.64 35.71 10.64ZM35.63 5.32C36.97 5.32 37.81 6.23 38.01 7.42L33.25 7.42C33.45 6.23 34.29 5.32 35.63 5.32ZM45.81 4.37C44.00 4.37 43.06 5.11 43.06 6.37C43.06 8.93 47.73 7.84 47.73 9.59C47.73 10.54 46.51 10.70 45.93 10.70C44.58 10.70 44.04 10.00 43.97 9.28L42.88 9.28C42.95 10.51 43.97 11.59 45.92 11.59C47.66 11.59 48.78 10.85 48.78 9.49C48.78 6.86 44.11 7.95 44.11 6.27C44.11 5.59 44.69 5.26 45.78 5.26C46.96 5.26 47.40 5.75 47.49 6.36L48.55 6.36C48.43 5.33 47.66 4.37 45.81 4.37ZM50.12 1.68L50.12 11.48L51.17 11.48L51.17 7.45C51.17 6.19 52.12 5.32 53.28 5.32C54.43 5.32 55.24 6.16 55.24 7.43L55.24 11.48L56.29 11.48L56.29 7.41C56.29 5.42 54.94 4.37 53.49 4.37C52.36 4.37 51.67 4.90 51.17 5.57L51.17 1.68ZM61.08 4.37C58.94 4.37 57.61 5.98 57.61 7.98C57.61 9.98 58.94 11.59 61.08 11.59C63.22 11.59 64.55 9.98 64.55 7.98C64.55 5.98 63.22 4.37 61.08 4.37ZM61.08 10.64C59.53 10.64 58.66 9.42 58.66 7.98C58.66 6.54 59.53 5.32 61.08 5.32C62.64 5.32 63.50 6.54 63.50 7.98C63.50 9.42 62.64 10.64 61.08 10.64ZM69.50 11.59C71.54 11.59 72.88 9.98 72.88 7.98C72.88 5.98 71.54 4.37 69.50 4.37C68.33 4.37 67.51 4.84 66.99 5.60L66.99 4.48L65.94 4.48L65.94 14.25L66.99 14.25L66.99 10.35C67.51 11.10 68.33 11.59 69.50 11.59ZM69.36 5.32C70.91 5.32 71.83 6.54 71.83 7.98C71.83 9.42 70.91 10.64 69.36 10.64C67.80 10.64 66.93 9.42 66.93 7.98C66.93 6.54 67.80 5.32 69.36 5.32Z"></path></g><!----><g data-v-423bf9ae="" id="a6c65da2-e1f1-4d58-824d-eb6cd1d09dde" transform="matrix(1.2025172322188924,0,0,1.2025172322188924,13.405450542180475,-14.55313481765743)" stroke="none" fill="black"><path d="M25.913 32.797l16.736 29.195h12.234L25.676 12.753l-36.79 63.561 5.939 11.136z"></path><path d="M31.367 43.632l-5.456-9.375L-4.631 87.45h73.934l5.811-11.826-61.882.063z"></path><path d="M21.448 62.713l-7.035 12.479h60.701L38.308 12.607H26.672l29.683 50.106z"></path></g><!----></svg>